<svg width="24" height="24" viewBox="0 0 24 24" fill="none" xmlns="http://www.w3.org/2000/svg">
  <circle cx="12" cy="12" r="9.5" stroke="#58a6ff" stroke-width="2"/>
  <circle cx="12" cy="12" r="2.8" stroke="#58a6ff" stroke-width="2"/>
  <g stroke="#58a6ff" stroke-width="1.8" stroke-linecap="round">
    <line x1="12" y1="9.2" x2="12" y2="2.5" transform="rotate(0 12 12)"/>
    <line x1="12" y1="9.2" x2="12" y2="2.5" transform="rotate(45 12 12)"/>
    <line x1="12" y1="9.2" x2="12" y2="2.5" transform="rotate(90 12 12)"/>
    <line x1="12" y1="9.2" x2="12" y2="2.5" transform="rotate(135 12 12)"/>
    <line x1="12" y1="9.2" x2="12" y2="2.5" transform="rotate(180 12 12)"/>
    <line x1="12" y1="9.2" x2="12" y2="2.5" transform="rotate(225 12 12)"/>
    <line x1="12" y1="9.2" x2="12" y2="2.5" transform="rotate(270 12 12)"/>
    <line x1="12" y1="9.2" x2="12" y2="2.5" transform="rotate(315 12 12)"/>
  </g>
  <g fill="#58a6ff">
    <circle cx="12" cy="2" r="1.3" transform="rotate(0 12 12)"/>
    <circle cx="12" cy="2" r="1.3" transform="rotate(45 12 12)"/>
    <circle cx="12" cy="2" r="1.3" transform="rotate(90 12 12)"/>
    <circle cx="12" cy="2" r="1.3" transform="rotate(135 12 12)"/>
    <circle cx="12" cy="2" r="1.3" transform="rotate(180 12 12)"/>
    <circle cx="12" cy="2" r="1.3" transform="rotate(225 12 12)"/>
    <circle cx="12" cy="2" r="1.3" transform="rotate(270 12 12)"/>
    <circle cx="12" cy="2" r="1.3" transform="rotate(315 12 12)"/>
  </g>
</svg>
